<svg width="12" height="15" fill="none" xmlns="http://www.w3.org/2000/svg"><path d="M9.398 0h-7.74C.744 0 0 .628 0 1.4v12.136c0 .772.744 1.4 1.658 1.4h7.74c.914 0 1.658-.628 1.658-1.4V1.4c0-.772-.744-1.4-1.658-1.4zm-7.74.933h7.74c.305 0 .553.21.553.467v9.802H1.106V1.4c0-.257.247-.467.552-.467zm7.74 13.07h-7.74c-.305 0-.552-.21-.552-.467v-1.4H9.95v1.4c0 .257-.248.466-.553.466z" fill="#757575"/><path d="M2.602 12.739a.418.418 0 010 .66.627.627 0 01-.781 0 .418.418 0 010-.66.627.627 0 01.781 0z" fill="#757575"/></svg>